<?xml version="1.0" encoding="utf-8"?>
<!-- Generator: Adobe Illustrator 28.2.0, SVG Export Plug-In . SVG Version: 6.00 Build 0)  -->
<svg version="1.1" id="Layer_1" xmlns="http://www.w3.org/2000/svg" xmlns:xlink="http://www.w3.org/1999/xlink" x="0px" y="0px"
	 viewBox="0 0 24 24" style="enable-background:new 0 0 24 24;" xml:space="preserve">
<style type="text/css">
	.st0{fill:#FFFFFF;}
	.st1{fill:none;}
</style>
<path class="st0" d="M7.2,17.6V6.3c0-0.5,0.2-0.8,0.5-1.1c0.3-0.3,0.7-0.4,1.1-0.4c0.1,0,0.3,0,0.4,0.1c0.1,0,0.3,0.1,0.4,0.2
	l8.9,5.7c0.2,0.1,0.4,0.3,0.5,0.6s0.2,0.5,0.2,0.7s-0.1,0.5-0.2,0.7c-0.1,0.2-0.3,0.4-0.5,0.6L9.6,19c-0.1,0.1-0.3,0.1-0.4,0.2
	c-0.2,0-0.3,0.1-0.4,0.1c-0.4,0-0.8-0.1-1.1-0.4C7.3,18.5,7.2,18.1,7.2,17.6z"/>
<rect x="4.8" y="4.8" class="st1" width="14.5" height="14.5"/>
</svg>
