<?xml version="1.0" encoding="utf-8"?>
<!-- Generator: Adobe Illustrator 28.2.0, SVG Export Plug-In . SVG Version: 6.00 Build 0)  -->
<svg version="1.1" id="Layer_1" xmlns="http://www.w3.org/2000/svg" xmlns:xlink="http://www.w3.org/1999/xlink" x="0px" y="0px"
	 viewBox="0 0 24 24" style="enable-background:new 0 0 24 24;" xml:space="preserve">
<style type="text/css">
	.st0{fill:#FFFFFF;}
</style>
<path class="st0" d="M12,16c1.2,0,2.3-0.4,3.2-1.3s1.3-1.9,1.3-3.2s-0.4-2.3-1.3-3.2S13.2,7,12,7S9.7,7.4,8.8,8.3s-1.3,1.9-1.3,3.2
	s0.4,2.3,1.3,3.2S10.8,16,12,16z M12,13.7c-0.6,0-1.1-0.2-1.5-0.6c-0.4-0.4-0.6-0.9-0.6-1.5c0-0.6,0.2-1.1,0.6-1.5
	c0.4-0.4,0.9-0.6,1.5-0.6c0.6,0,1.1,0.2,1.5,0.6c0.4,0.4,0.6,0.9,0.6,1.5c0,0.6-0.2,1.1-0.6,1.5C13.1,13.5,12.6,13.7,12,13.7z
	 M12,19.8c-2.3,0-4.5-0.6-6.4-1.9S2.1,15,1,13c-0.1-0.2-0.2-0.5-0.3-0.7s-0.1-0.5-0.1-0.8s0-0.5,0.1-0.8S0.9,10.3,1,10
	C2.1,8,3.6,6.3,5.6,5.1S9.7,3.2,12,3.2s4.5,0.6,6.4,1.9S21.9,8,23,10c0.1,0.2,0.2,0.5,0.3,0.7s0.1,0.5,0.1,0.8s0,0.5-0.1,0.8
	S23.1,12.7,23,13c-1.1,2.1-2.6,3.7-4.6,4.9S14.3,19.8,12,19.8z"/>
</svg>
