<svg xmlns="http://www.w3.org/2000/svg" height="20" viewBox="0 -960 960 960" width="20"><path d="M480-312q70 0 119-49t49-119q0-70-49-119t-119-49q-70 0-119 49t-49 119q0 70 49 119t119 49Zm.176-93Q449-405 427-426.824q-22-21.823-22-53Q405-511 426.824-533q21.823-22 53-22Q511-555 533-533.176q22 21.823 22 53Q555-449 533.176-427q-21.823 22-53 22ZM480-161q-136 0-251-71.5T48-424q-8-13-11-27.269-3-14.269-3-28.5t3-28.731Q40-523 48-536q66-120 181-191.5T480-799q136 0 251 71.5T912-536q8 13 11 27.269 3 14.269 3 28.5t-3 28.731q-3 14.5-11 27.5-66 120-181 191.5T480-161Z"/></svg>